<svg xmlns="http://www.w3.org/2000/svg" xmlns:xlink="http://www.w3.org/1999/xlink" viewBox="0 0 192.31 195.04"><defs><style>.cls-1{fill:url(#linear-gradient);}.cls-2{fill:none;}</style><linearGradient id="linear-gradient" y1="49.48" x2="192.31" y2="49.48" gradientUnits="userSpaceOnUse"><stop offset="0" stop-color="#fff" stop-opacity="0"/><stop offset="1" stop-color="#fff"/></linearGradient></defs><g id="Layer_2" data-name="Layer 2"><g id="Layer_1-2" data-name="Layer 1"><path className="cls-1" d="M0,99c0-.9,0-1.82,0-2.74A96.24,96.24,0,0,1,184.88,58.77a95.33,95.33,0,0,1,7.42,32,5.16,5.16,0,0,1-5.16,5.41h0a5.16,5.16,0,0,1-5.15-4.9,85.9,85.9,0,0,0-171.66,4.9c0,.82,0,1.64,0,2.45Z"/><path className="cls-2" d="M192.27,96.08c0,.91,0,1.83,0,2.74A96.25,96.25,0,0,1,7.42,136.27a95.5,95.5,0,0,1-7.41-32,5.15,5.15,0,0,1,5.16-5.42h0a5.16,5.16,0,0,1,5.15,4.9A85.9,85.9,0,0,0,182,98.82c0-.82,0-1.64,0-2.45Z"/></g></g></svg>